<?xml version="1.0" encoding="UTF-8"?>
<svg version="1.1" xmlns="http://www.w3.org/2000/svg" width="1600" height="960">
<path d="M0 0 C528 0 1056 0 1600 0 C1600 316.8 1600 633.6 1600 960 C1072 960 544 960 0 960 C0 643.2 0 326.4 0 0 Z " fill="#0C182B" transform="translate(0,0)"/>
<path d="M0 0 C3.22169677 1.56311954 4.28596529 4.33460862 5.859375 7.3984375 C6.65270607 8.87300591 7.4498782 10.34551152 8.25 11.81640625 C8.69794922 12.64188965 9.14589844 13.46737305 9.60742188 14.31787109 C12.49304276 19.51592875 15.56372622 24.60559358 18.609375 29.7109375 C20.00231898 32.05147932 21.39388805 34.39283675 22.78515625 36.734375 C23.13876724 37.32929245 23.49237823 37.9242099 23.85670471 38.53715515 C27.8653017 45.28668381 31.83177065 52.06079944 35.796875 58.8359375 C40.71749426 67.2418109 45.64770326 75.64169783 50.609375 84.0234375 C56.00350005 93.13618165 61.36139023 102.26990953 66.71289062 111.40771484 C71.32901316 119.28914963 75.95681752 127.16343509 80.609375 135.0234375 C86.00347466 144.13619678 91.36139016 153.2699094 96.71289062 162.40771484 C101.84277465 171.16633122 106.99225389 179.91304385 112.1628418 188.64770508 C116.23923562 195.53891641 120.28985815 202.44504948 124.33502197 209.35461426 C130.27934027 219.50739107 136.24051957 229.64981274 142.234375 239.7734375 C142.88051758 240.86825439 143.52666016 241.96307129 144.19238281 243.09106445 C147.21287625 248.19636321 150.25588482 253.28419215 153.38317871 258.32470703 C154.46317114 260.06586292 155.53765881 261.81030344 156.61083984 263.55566406 C157.95426962 265.73456012 159.30953499 267.90621651 160.67822266 270.06933594 C161.27554199 271.04161133 161.87286133 272.01388672 162.48828125 273.015625 C163.0201001 273.86495605 163.55191895 274.71428711 164.09985352 275.58935547 C165.35412854 278.61356877 165.1250458 279.94091 164.109375 283.0234375 C163.0246582 285.3215332 163.0246582 285.3215332 161.66015625 287.69921875 C161.14912354 288.59697021 160.63809082 289.49472168 160.11157227 290.41967773 C159.55397217 291.38204346 158.99637207 292.34440918 158.421875 293.3359375 C157.84171631 294.34922119 157.26155762 295.36250488 156.66381836 296.40649414 C154.82123071 299.61736686 152.96724663 302.82138697 151.109375 306.0234375 C150.52865234 307.02536133 149.94792969 308.02728516 149.34960938 309.05957031 C145.87269693 315.05064878 142.37746177 321.03086767 138.87548828 327.00732422 C135.9468136 332.00882366 133.02855454 337.01639226 130.109375 342.0234375 C126.623244 348.00125829 123.13613272 353.97849749 119.64453125 359.953125 C113.64160441 370.22876307 107.66749712 380.51982313 101.734375 390.8359375 C96.59275152 399.77213924 91.37958038 408.66249363 86.109375 417.5234375 C78.32090237 430.62081818 70.69746461 443.80921299 63.109375 457.0234375 C54.8674871 471.37621438 46.55860871 485.68240393 38.09667969 499.90673828 C33.47787959 507.68228034 28.93015268 515.49586013 24.421875 523.3359375 C23.19284591 525.46752725 21.96368092 527.59903864 20.734375 529.73046875 C18.90365978 532.90512227 17.0762149 536.08145892 15.2578125 539.26318359 C13.48882619 542.35561631 11.70674667 545.4401537 9.921875 548.5234375 C9.39311768 549.45583252 8.86436035 550.38822754 8.31958008 551.34887695 C7.82353271 552.20054443 7.32748535 553.05221191 6.81640625 553.9296875 C6.3881958 554.67541016 5.95998535 555.42113281 5.51879883 556.18945312 C3.9180133 558.27244306 2.52003015 559.04361661 0.109375 560.0234375 C-2.76225177 556.57732787 -5.1510044 553.08833058 -7.40234375 549.2109375 C-7.72771622 548.65330215 -8.05308868 548.09566681 -8.38832092 547.52113342 C-9.45528717 545.69069277 -10.51664875 543.85706628 -11.578125 542.0234375 C-12.33127566 540.72948591 -13.08486418 539.43578909 -13.83886719 538.14233398 C-15.40715533 535.45119121 -16.97355055 532.75896041 -18.53857422 530.06591797 C-21.8680818 524.33957693 -25.21844856 518.62547992 -28.56973267 512.91186523 C-29.64478468 511.07884503 -30.71928813 509.24550416 -31.79370117 507.41210938 C-36.49012667 499.39991349 -41.20785973 491.40050355 -45.93847656 483.40844727 C-50.81410831 475.16591254 -55.65454538 466.9028761 -60.49414062 458.63916016 C-65.11026316 450.75772537 -69.73806752 442.88343991 -74.390625 435.0234375 C-79.4139545 426.53705509 -84.40687277 418.03309372 -89.390625 409.5234375 C-96.52710591 397.33884912 -103.69735881 385.17459412 -110.890625 373.0234375 C-118.45232184 360.2499129 -125.98610616 347.4604646 -133.48699951 334.65115356 C-137.69409222 327.46694522 -141.90925625 320.28783941 -146.15185547 313.12451172 C-147.72452445 310.46786696 -149.29222627 307.8083413 -150.859375 305.1484375 C-152.94278108 301.61476433 -155.05099312 298.09723125 -157.171875 294.5859375 C-158.20340429 292.85693743 -159.23466586 291.1277776 -160.265625 289.3984375 C-160.7488623 288.61001465 -161.23209961 287.8215918 -161.72998047 287.00927734 C-162.37797607 285.91413818 -162.37797607 285.91413818 -163.0390625 284.796875 C-163.61406494 283.84433838 -163.61406494 283.84433838 -164.20068359 282.87255859 C-165.11270685 280.428233 -164.81987873 279.4545692 -163.890625 277.0234375 C-162.90450533 275.10677912 -161.86148023 273.21905763 -160.78515625 271.3515625 C-160.13853027 270.22459961 -159.4919043 269.09763672 -158.82568359 267.93652344 C-158.1183189 266.71540509 -157.41079536 265.49437874 -156.703125 264.2734375 C-155.97442526 263.00833776 -155.24607671 261.74303567 -154.51806641 260.47753906 C-152.316513 256.65508969 -150.10507449 252.83842716 -147.890625 249.0234375 C-147.2630127 247.94191406 -146.63540039 246.86039063 -145.98876953 245.74609375 C-142.53987121 239.81047263 -139.07699918 233.8831091 -135.60839844 227.95898438 C-132.69701793 222.98365191 -129.79431103 218.00326308 -126.890625 213.0234375 C-125.7239988 211.02341389 -124.55733216 209.02341388 -123.390625 207.0234375 C-122.813125 206.0334375 -122.235625 205.0434375 -121.640625 204.0234375 C-116.390625 195.0234375 -116.390625 195.0234375 -114.64086914 192.02392578 C-113.47330772 190.02234539 -112.30582736 188.02071773 -111.13842773 186.01904297 C-108.23611084 181.04283358 -105.33242584 176.06743295 -102.42578125 171.09375 C-96.42285441 160.81811193 -90.44874712 150.52705187 -84.515625 140.2109375 C-79.37400152 131.27473576 -74.16083038 122.38438137 -68.890625 113.5234375 C-61.10215237 100.42605682 -53.47871461 87.23766201 -45.890625 74.0234375 C-37.56303373 59.5214131 -29.17275663 45.06257161 -20.62084961 30.69189453 C-16.06368746 23.02837121 -11.56758128 15.33271109 -7.16308594 7.58032227 C-2.84380138 0.03525374 -2.84380138 0.03525374 0 0 Z " fill="#E21336" transform="translate(640.890625,199.9765625)"/>
<path d="M0 0 C1.25395821 -0.05804558 1.25395821 -0.05804558 2.5332489 -0.11726379 C10.28879918 -0.4580326 18.04750812 -0.66596055 25.80860424 -0.83123875 C31.02147043 -0.94492802 36.22422416 -1.10339164 41.43164062 -1.37109375 C74.9580283 -3.05121692 74.9580283 -3.05121692 83.21636963 2.72125244 C88.18353816 8.28036016 90.7881234 14.57425006 93.05630493 21.60549927 C94.32443521 25.36595464 96.07232655 28.33080748 98.18676758 31.68188477 C99.30182829 33.61911006 100.41642485 35.55660262 101.53051758 37.49438477 C106.33837131 45.84275002 111.16957686 54.17682081 116.03051758 62.49438477 C124.05333436 76.22485293 131.98910085 90.00516562 139.92602539 103.78540039 C147.17084806 116.36202397 154.43784568 128.92475434 161.76123047 141.45581055 C166.68103039 149.88007815 171.55573895 158.32992373 176.42504883 166.78344727 C180.60400915 174.03390017 184.80799747 181.2692234 189.03051758 188.49438477 C197.05333436 202.22485293 204.98910085 216.00516562 212.92602539 229.78540039 C214.18766023 231.9755308 215.44962277 234.16547248 216.71191406 236.35522461 C217.95735226 238.51635488 219.20167184 240.67813022 220.44482422 242.84057617 C223.60824784 248.33465748 226.8024896 253.80736667 230.05004883 259.25219727 C230.69707764 260.34258301 231.34410645 261.43296875 232.01074219 262.55639648 C233.24191237 264.62785895 234.48060408 266.69487602 235.72802734 268.7565918 C236.279021 269.68584473 236.83001465 270.61509766 237.39770508 271.57250977 C237.88352051 272.38107422 238.36933594 273.18963867 238.86987305 274.02270508 C240.24725445 276.9559422 240.84657518 279.25256302 241.03051758 282.49438477 C240.01757812 285.20068359 240.01757812 285.20068359 238.41723633 287.95141602 C237.83401611 288.97227295 237.2507959 289.99312988 236.64990234 291.04492188 C236.01238037 292.12136963 235.3748584 293.19781738 234.71801758 294.30688477 C234.07082764 295.42909424 233.4236377 296.55130371 232.75683594 297.70751953 C230.86454635 300.97977474 228.95101021 304.23862295 227.03051758 307.49438477 C226.15232123 308.99664291 225.27463012 310.49919666 224.39770508 312.00219727 C222.84290303 314.65865605 221.27724765 317.30838541 219.70629883 319.95532227 C216.34906293 325.62767089 213.06891133 331.34445359 209.78051758 337.05688477 C204.88906471 345.55094712 199.97673274 354.03209238 195.03051758 362.49438477 C190.16944177 370.81187487 185.33903548 379.1464011 180.53051758 387.49438477 C175.72199914 395.84236935 170.89146075 404.17681661 166.03051758 412.49438477 C158.64636865 425.1318193 151.33561623 437.81113775 144.03051758 450.49438477 C136.15471033 464.16850656 128.26195912 477.83175451 120.29980469 491.45581055 C116.01806806 498.78751016 111.76840645 506.13726535 107.53051758 513.49438477 C102.53023351 522.17309112 97.51284232 530.84148409 92.46801758 539.49438477 C91.62883789 540.93491211 91.62883789 540.93491211 90.77270508 542.40454102 C90.23774414 543.32106445 89.7027832 544.23758789 89.15161133 545.18188477 C88.46216431 546.36331055 88.46216431 546.36331055 87.75878906 547.56860352 C87.18845947 548.53411133 86.61812988 549.49961914 86.03051758 550.49438477 C85.61823914 551.7431691 85.61823914 551.7431691 85.19763184 553.0171814 C83.84878156 556.31973751 82.75077698 558.15374574 80.03051758 560.49438477 C73.7249778 562.40418818 66.6944352 561.65163895 60.19458008 561.47094727 C58.23021039 561.45228621 56.26579403 561.43805622 54.30136108 561.42807007 C49.1412816 561.38996307 43.98403606 561.29180616 38.82507324 561.18103027 C33.55670513 561.07856442 28.28787705 561.03302576 23.01879883 560.98266602 C12.68812937 560.87555233 2.35955949 560.70497883 -7.96948242 560.49438477 C-8.87532175 557.57451802 -9.10497627 556.811149 -7.85229492 553.88256836 C-7.2722168 552.89595215 -6.69213867 551.90933594 -6.09448242 550.89282227 C-5.44656738 549.77617188 -4.79865234 548.65952148 -4.13110352 547.5090332 C-3.41074227 546.2957107 -2.69019705 545.0824974 -1.96948242 543.86938477 C-1.23341274 542.60999794 -0.49856558 541.34989587 0.23510742 540.08911133 C1.74924124 537.49055869 3.26967034 534.8958532 4.79516602 532.30395508 C7.49877446 527.70517725 10.15518233 523.07995605 12.81176758 518.45385742 C18.74930591 508.11820079 24.75042402 497.81980198 30.76367188 487.52807617 C37.56666568 475.87753156 44.29703042 464.18518937 51.03051758 452.49438477 C58.90714347 438.81884162 66.8017185 425.15477519 74.76342773 411.52856445 C81.56639381 399.87779292 88.29693944 388.18534732 95.03051758 376.49438477 C102.90419459 362.82396151 110.7952279 349.16465887 118.75463867 335.54394531 C123.73560968 327.01426053 128.69023877 318.4693936 133.59863281 309.89770508 C136.49972276 304.83758416 139.43076065 299.80753867 142.49145508 294.84204102 C143.01779541 293.97554932 143.54413574 293.10905762 144.08642578 292.21630859 C145.06026486 290.61849289 146.0500183 289.03022121 147.05859375 287.45410156 C149.63435657 283.24893615 149.63435657 283.24893615 149.56958008 278.43188477 C147.75619972 274.97081362 145.87555318 271.58000514 143.84301758 268.24438477 C142.93680402 266.73081891 142.03194491 265.21644158 141.12817383 263.70141602 C140.38591553 262.45932373 140.38591553 262.45932373 139.62866211 261.19213867 C136.63165104 256.13302283 133.71138388 251.0295027 130.78051758 245.93188477 C125.88955499 237.43754138 120.97664262 228.95672574 116.03051758 220.49438477 C108.007625 206.76396139 100.07193393 192.98360327 92.13500977 179.20336914 C84.89018709 166.62674556 77.62318948 154.0640152 70.29980469 141.53295898 C65.38000476 133.10869138 60.5052962 124.6588458 55.63598633 116.20532227 C51.457026 108.95486936 47.25303769 101.71954613 43.03051758 94.49438477 C35.0077008 80.7639166 27.0719343 66.98360391 19.13500977 53.20336914 C17.87333973 51.01317763 16.61137714 48.82315462 15.34912109 46.63330078 C14.10396514 44.47282187 12.85964926 42.31185856 11.61621094 40.15039062 C8.44633869 34.64804202 5.25039104 29.16315744 2.01098633 23.70141602 C1.36395752 22.60651855 0.71692871 21.51162109 0.05029297 20.38354492 C-1.18267807 18.30015589 -2.42147707 16.22020125 -3.66699219 14.14428711 C-4.21798584 13.21181152 -4.76897949 12.27933594 -5.33666992 11.31860352 C-6.06539307 10.09790161 -6.06539307 10.09790161 -6.80883789 8.85253906 C-8.0309397 6.36951816 -8.63832452 4.2375452 -8.96948242 1.49438477 C-6.93310493 -0.54199273 -2.80231961 0.11989158 0 0 Z " fill="#E21336" transform="translate(882.969482421875,199.505615234375)"/>
<path d="M0 0 C11.23940657 -0.20863947 22.47835176 -0.36849883 33.71930122 -0.46630955 C38.93921483 -0.51325791 44.15780265 -0.5769192 49.37695312 -0.67895508 C54.41506821 -0.77683388 59.45190941 -0.83057534 64.49090195 -0.85389519 C66.41199682 -0.87051002 68.3330228 -0.90295782 70.25357437 -0.95157051 C85.27655918 -1.31666414 85.27655918 -1.31666414 89.4175415 1.84693909 C91.01061188 4.18333692 92.02286224 6.35382097 93 9 C93.95422852 10.58953491 93.95422852 10.58953491 94.92773438 12.21118164 C95.47751953 13.18434326 96.02730469 14.15750488 96.59375 15.16015625 C97.22418213 16.27084473 97.85461426 17.3815332 98.50415039 18.52587891 C98.82916534 19.10186829 99.1541803 19.67785767 99.48904419 20.27130127 C101.24451586 23.3816238 103.01153526 26.48538184 104.77734375 29.58984375 C105.13420761 30.2178186 105.49107147 30.84579346 105.85874939 31.49279785 C109.2166659 37.39558552 112.63144027 43.26444543 116.0625 49.125 C122.79252843 60.62846431 129.45655937 72.16923711 136.10888672 83.71777344 C139.23680148 89.14659942 142.36858448 94.57319281 145.5 100 C146.75001879 102.16665583 148.00001878 104.3333225 149.25 106.5 C150.178125 108.10875 150.178125 108.10875 151.125 109.75 C156.75 119.5 156.75 119.5 158.62524414 122.75048828 C159.87435518 124.91557071 161.12354129 127.08060982 162.37280273 129.24560547 C165.51202309 134.68615706 168.64990563 140.12747216 171.78515625 145.5703125 C177.83055159 156.06232094 183.89110219 166.54481676 190 177 C195.46305363 186.34984157 200.89775224 195.71559677 206.29345703 205.10449219 C209.23170253 210.21548685 212.18039522 215.31919727 215.17622375 220.39663696 C216.57731329 222.77262425 217.97163167 225.15255221 219.36550903 227.53277588 C220.35098238 229.20914412 221.3461525 230.87980006 222.34155273 232.55029297 C222.93782471 233.57010254 223.53409668 234.58991211 224.1484375 235.640625 C224.67614746 236.53297852 225.20385742 237.42533203 225.74755859 238.34472656 C227.12575378 241.26660781 227.69496813 243.79113369 228 247 C225.97761815 249.02238185 221.81506773 248.15723432 219.03955078 248.16113281 C217.78834946 248.16858017 217.78834946 248.16858017 216.51187134 248.17617798 C213.73967681 248.19083844 210.9675395 248.19760809 208.1953125 248.203125 C206.27578733 248.20887333 204.35626218 248.2146311 202.43673706 248.22039795 C198.40655244 248.23091905 194.37638784 248.23675442 190.34619141 248.24023438 C185.17521399 248.24572093 180.00449966 248.26974773 174.83360481 248.29820633 C170.86684389 248.31680581 166.90014665 248.32203687 162.93334579 248.32357025 C161.02670732 248.32660349 159.12007015 248.33465448 157.21347427 248.34775543 C154.54852392 248.36475968 151.88422047 248.36294957 149.21923828 248.35644531 C148.42743164 248.3656601 147.635625 248.37487488 146.81982422 248.3843689 C141.4789324 248.34341557 141.4789324 248.34341557 139.07876587 246.62239075 C137.62056216 244.4293512 136.25732761 242.22326161 134.953125 239.93359375 C134.36337891 238.90427734 133.77363281 237.87496094 133.16601562 236.81445312 C132.53373047 235.70005859 131.90144531 234.58566406 131.25 233.4375 C130.58058653 232.26598539 129.91065574 231.09476624 129.24023438 229.92382812 C127.84760003 227.49056166 126.45720253 225.05603768 125.06835938 222.62060547 C121.89970234 217.06842407 118.69820559 211.53519338 115.5 206 C114.24984475 203.83342291 112.99984527 201.66675593 111.75 199.5 C111.13125 198.4275 110.5125 197.355 109.875 196.25 C104.25 186.5 104.25 186.5 102.37475586 183.24951172 C101.12564482 181.08442929 99.87645871 178.91939018 98.62719727 176.75439453 C95.48797691 171.31384294 92.35009437 165.87252784 89.21484375 160.4296875 C83.16944841 149.93767906 77.10889781 139.45518324 71 129 C64.25298806 117.45270484 57.56660682 105.87097973 50.89111328 94.28222656 C47.76319854 88.85340062 44.63146269 83.42677993 41.5 78 C37.73636081 71.47766725 33.97355378 64.95486238 30.21484375 58.4296875 C23.97872075 47.60635833 17.72808398 36.79178649 11.4375 26 C10.87796631 25.0394873 10.31843262 24.07897461 9.74194336 23.08935547 C9.20706299 22.17299316 8.67218262 21.25663086 8.12109375 20.3125 C7.35321533 18.98798828 7.35321533 18.98798828 6.56982422 17.63671875 C5.49195502 15.82630082 4.37661872 14.03782828 3.23095703 12.26953125 C2.67134277 11.39683594 2.11172852 10.52414063 1.53515625 9.625 C0.76957397 8.46871094 0.76957397 8.46871094 -0.01147461 7.2890625 C-1.24617111 4.42995793 -0.70741584 2.96793003 0 0 Z " fill="#E21336" transform="translate(716,200)"/>
<path d="M0 0 C0.79742615 0.00202423 1.59485229 0.00404846 2.41644287 0.00613403 C3.67005363 0.00350555 3.67005363 0.00350555 4.94898987 0.00082397 C7.72600347 -0.00359595 10.50295395 -0.0006558 13.27996826 0.00271606 C15.20188916 0.002043 17.12380998 0.00107296 19.04573059 -0.00018311 C23.08011686 -0.00166032 27.11448104 0.000495 31.14886475 0.00515747 C36.32881145 0.01085095 41.5087063 0.00757832 46.68865108 0.00158501 C50.65965671 -0.00202323 54.63064997 -0.00088074 58.60165596 0.0017128 C60.51189747 0.00238154 62.42214008 0.00155549 64.33238029 -0.00076675 C66.99975441 -0.00329714 69.66704383 0.00055299 72.33441162 0.00613403 C73.5275145 0.00309769 73.5275145 0.00309769 74.74472046 0 C80.21159788 0.02126525 80.21159788 0.02126525 82.44012451 1.13552856 C81.91201057 5.37427713 81.00384337 8.40161771 78.80731201 12.05740356 C78.25631836 12.98665649 77.70532471 13.91590942 77.13763428 14.87332153 C76.53620605 15.86734985 75.93477783 16.86137817 75.31512451 17.88552856 C74.02919182 20.04912978 72.74406241 22.21320858 71.45965576 24.37771606 C70.79401611 25.49372192 70.12837646 26.60972778 69.44256592 27.759552 C66.24640266 33.14806035 63.12506901 38.57908062 60.00262451 44.01052856 C58.74494653 46.19289776 57.48713325 48.37518899 56.22918701 50.55740356 C54.96609182 52.75006907 53.70307107 54.94277745 52.44012451 57.13552856 C44.56349862 70.81107171 36.66892359 84.47513814 28.70721436 98.10134888 C22.54093398 108.66173139 16.43516502 119.25679622 10.33123779 129.853302 C7.20332303 135.28212799 4.07154003 140.70872138 0.94012451 146.13552856 C-0.30989428 148.30218439 -1.55989427 150.46885106 -2.80987549 152.63552856 C-5.30987549 156.9688619 -7.80987549 161.30219523 -10.30987549 165.63552856 C-10.92870605 166.7081897 -11.54753662 167.78085083 -12.18511963 168.88601685 C-13.43423067 171.05109927 -14.68341678 173.21613839 -15.93267822 175.38113403 C-19.07189858 180.82168562 -22.20978112 186.26300072 -25.34503174 191.70584106 C-29.07811567 198.18541162 -32.81732357 204.66142267 -36.55987549 211.13552856 C-37.19409424 212.23364868 -37.82831299 213.3317688 -38.48175049 214.46316528 C-40.35864216 217.71005436 -42.23986122 220.95439685 -44.12237549 224.19802856 C-44.68190918 225.16692017 -45.24144287 226.13581177 -45.81793213 227.13406372 C-46.3528125 228.05364868 -46.88769287 228.97323364 -47.43878174 229.92068481 C-47.89841309 230.71353882 -48.35804443 231.50639282 -48.831604 232.32327271 C-49.40193359 233.25131714 -49.97226318 234.17936157 -50.55987549 235.13552856 C-50.83726562 235.89352249 -51.11465576 236.65151642 -51.40045166 237.43247986 C-52.79043279 240.4799992 -53.89092329 242.07399827 -56.55987549 244.13552856 C-63.0892776 245.44783427 -69.54485274 245.18230825 -76.17706299 245.01443481 C-78.11901905 244.99763956 -80.06101335 244.98483271 -82.00302124 244.97584534 C-87.10367942 244.94155256 -92.20201476 244.85321095 -97.30175781 244.75350952 C-102.5098732 244.6612847 -107.71836564 244.62030406 -112.92706299 244.57498169 C-123.13901867 244.47858494 -133.34925361 244.32507049 -143.55987549 244.13552856 C-144.59029273 239.79384839 -144.47244974 238.16489748 -142.12237549 234.31130981 C-141.56493652 233.37883423 -141.00749756 232.44635864 -140.4331665 231.48562622 C-139.50588745 229.98201538 -139.50588745 229.98201538 -138.55987549 228.44802856 C-137.25554677 226.27541751 -135.95219369 224.1022205 -134.64971924 221.92849731 C-133.63240723 220.24506226 -133.63240723 220.24506226 -132.59454346 218.52761841 C-129.36642478 213.14587123 -126.24605401 207.70333301 -123.12237549 202.26052856 C-121.86487198 200.07805883 -120.60705762 197.89576818 -119.34893799 195.71365356 C-118.0858428 193.52098806 -116.82282205 191.32827968 -115.55987549 189.13552856 C-107.6832496 175.45998542 -99.78867457 161.79591899 -91.82696533 148.16970825 C-85.66068495 137.60932574 -79.55491599 127.01426091 -73.45098877 116.41775513 C-70.32307401 110.98892914 -67.19129101 105.56233575 -64.05987549 100.13552856 C-62.8098567 97.96887274 -61.5598567 95.80220607 -60.30987549 93.63552856 C-56.55987549 87.13552856 -56.55987549 87.13552856 -52.80987549 80.63552856 C-52.19104492 79.56286743 -51.57221436 78.4902063 -50.93463135 77.38504028 C-49.68552031 75.21995786 -48.4363342 73.05491874 -47.18707275 70.8899231 C-44.04785239 65.44937151 -40.90996986 60.00805641 -37.77471924 54.56521606 C-31.53859624 43.7418869 -25.28795947 32.92731506 -18.99737549 22.13552856 C-18.4378418 21.17501587 -17.87830811 20.21450317 -17.30181885 19.22488403 C-6.09415123 0.02379781 -6.09415123 0.02379781 0 0 Z " fill="#E21336" transform="translate(859.5598754882813,515.8644714355469)"/>
</svg>
